<svg height="499pt" viewBox="-1 0 499 499.312" width="499pt" xmlns="http://www.w3.org/2000/svg" xmlns:xlink="http://www.w3.org/1999/xlink"><linearGradient id="a" gradientUnits="userSpaceOnUse" x1="248.156" x2="248.156" y1="499.312" y2="-.0008"><stop offset="0" stop-color="#9f2fff"/><stop offset="1" stop-color="#0bb1d3"/></linearGradient><path d="m184.15625 403.3125c44.113281 0 80-35.886719 80-80s-35.886719-80-80-80-80 35.886719-80 80 35.886719 80 80 80zm-60.257812-58.632812c8.34375-7.078126 18.679687-11.574219 29.53125-12.902344.789062 2.855468 1.925781 5.535156 3.429687 8.015625-7.472656 9.101562-12.597656 19.976562-14.953125 31.472656-8.078125-7.121094-14.328125-16.242187-18.007812-26.585937zm60.257812 42.632812c-9.847656 0-19.152344-2.304688-27.496094-6.296875.902344-10.902344 5.03125-21.398437 11.761719-30.007813 2.511719 1.441407 5.207031 2.558594 8.085937 3.28125 1.167969 11.710938 5.222657 23.023438 11.695313 32.824219-1.34375.078125-2.679687.199219-4.046875.199219zm-16-64c0-8.824219 7.175781-16 16-16s16 7.175781 16 16-7.175781 16-16 16-16-7.175781-16-16zm37.359375 60.253906c-7.070313-8.351562-11.566406-18.6875-12.902344-29.535156 2.855469-.792969 5.535157-1.925781 8.015625-3.429688 9.101563 7.46875 19.96875 12.605469 31.472656 14.957032-7.128906 8.082031-16.242187 14.328125-26.585937 18.007812zm42.640625-60.253906c0 9.832031-2.296875 19.128906-6.28125 27.464844-10.894531-.960938-21.398438-5.023438-30.023438-11.738282 1.441407-2.511718 2.570313-5.199218 3.28125-8.078124 11.71875-1.167969 23.03125-5.226563 32.824219-11.703126.078125 1.351563.199219 2.6875.199219 4.054688zm-3.746094-21.367188c-8.34375 7.078126-18.679687 11.574219-29.527344 12.902344-.789062-2.855468-1.925781-5.535156-3.429687-8.015625 7.472656-9.105469 12.597656-19.976562 14.949219-31.472656 8.074218 7.121094 14.328125 16.242187 18.007812 26.585937zm-60.253906-42.632812c9.847656 0 19.152344 2.304688 27.496094 6.296875-.90625 10.902344-5.03125 21.398437-11.761719 30.007813-2.519531-1.441407-5.207031-2.5625-8.085937-3.28125-1.167969-11.710938-5.226563-23.023438-11.695313-32.824219 1.34375-.078125 2.679687-.199219 4.046875-.199219zm-21.359375 3.742188c7.070313 8.351562 11.566406 18.6875 12.902344 29.539062-2.855469.789062-5.535157 1.925781-8.015625 3.429688-9.105469-7.472657-19.96875-12.609376-31.472656-14.960938 7.121093-8.078125 16.242187-14.328125 26.585937-18.007812zm-6.328125 44.519531c-1.441406 2.515625-2.570312 5.203125-3.28125 8.089843-11.71875 1.167969-23.03125 5.222657-32.824219 11.703126-.085937-1.351563-.207031-2.6875-.207031-4.054688 0-9.839844 2.296875-19.136719 6.289062-27.480469 11.015626.953125 21.421876 5.023438 30.023438 11.742188zm291.6875 63.738281h-111.28125c4.785156-15.3125 7.28125-31.449219 7.28125-48 0-69.527344-44.167969-130.046875-108.984375-151.703125l12.984375-12.984375 16 16 24-24 16 16 35.3125-35.3125-131.3125-131.3125-35.3125 35.3125 16 16-24 24 8 8-86.695312 86.695312c-39.976563 39.976563-61.992188 93.128907-61.992188 149.664063 0 14.464844 2.0625 28.488281 5.632812 41.929687l-20.113281 32.191407c-6.222656 9.96875-9.519531 21.4375-9.519531 33.183593v1.710938c0 16.738281 6.511719 32.464844 18.34375 44.28125 11.832031 11.832031 27.558594 18.34375 44.289062 18.34375h1.703126c11.75 0 23.230468-3.289062 33.191406-9.519531l20.914062-13.066407c17.742188 8.304688 37.191406 13.273438 57.566406 14.289063v.296875h272v16h48v-144h-48v16zm-240-348.6875 108.6875 108.6875-12.6875 12.6875-108.6875-108.6875zm-8 40 76.6875 76.6875-12.6875 12.6875-76.6875-76.6875zm-110.960938 405.597656c-7.40625 4.632813-15.960937 7.089844-24.710937 7.089844h-1.695313c-12.457031 0-24.167968-4.847656-32.976562-13.65625s-13.65625-20.511719-13.65625-32.96875v-1.710938c0-8.746093 2.457031-17.289062 7.085938-24.710937l13-20.808594c13.296874 32.710938 36.792968 60.261719 66.257812 78.464844zm-49.039062-148.550781c0-52.265625 20.351562-101.398437 57.304688-138.351563l86.695312-86.695312 52.6875 52.6875-64.65625 64.664062c-56.152344 6-100.03125 53.625-100.03125 111.335938 0 61.757812 50.238281 112 112 112 61.757812 0 112-50.242188 112-112 0-58.128906-44.511719-106.015625-101.230469-111.457031l27.335938-27.335938c62.542969 17.097657 105.894531 73.472657 105.894531 138.792969 0 39.441406-15.632812 76.238281-44.015625 103.632812-28.367187 27.375-65.785156 41.605469-105.242187 40.269532-76.503907-2.71875-138.742188-68.902344-138.742188-147.542969zm144-92.359375c52.9375 0 96 43.0625 96 96 0 52.933594-43.0625 96-96 96s-96-43.066406-96-96c0-52.9375 43.0625-96 96-96zm232 240h-16v-32h-16v32h-32v-32h-16v32h-82.390625c15.046875-7.296875 29.070313-16.878906 41.488281-28.855469 15.382813-14.839843 27.324219-32.191406 35.597656-51.144531h29.304688v32h16v-32h40zm32 0h-16v-80h16zm16-96h16v112h-16zm-408 72c0 4.421875-3.585938 8-8 8-4.417969 0-8-3.578125-8-8 0-4.425781 3.582031-8 8-8 4.414062 0 8 3.574219 8 8zm120-264c13.230469 0 24-10.769531 24-24 0-13.234375-10.769531-24-24-24s-24 10.765625-24 24c0 13.230469 10.769531 24 24 24zm0-32c4.40625 0 8 3.589844 8 8 0 4.40625-3.59375 8-8 8-4.410156 0-8-3.59375-8-8 0-4.410156 3.589844-8 8-8zm0 0" fill="url(#a)"/></svg>